<svg width="360" height="40" viewBox="0 0 360 40" fill="none" xmlns="http://www.w3.org/2000/svg">
<path d="M356 0H4C1.8 0 0 1.8 0 4V40H360V4C360 1.8 358.2 0 356 0Z" fill="#4D4D4D"/>
<path d="M22.9912 27C20.4904 27 18.1795 25.6658 16.929 23.5C15.6786 21.3342 15.6786 18.6658 16.929 16.5C18.1795 14.3342 20.4904 13 22.9912 13C26.8572 13 29.9912 16.134 29.9912 20C29.9912 23.866 26.8572 27 22.9912 27Z" fill="white"/>
<path d="M46.002 27C43.5011 27 41.1902 25.6658 39.9398 23.5C38.6893 21.3342 38.6893 18.6658 39.9398 16.5C41.1902 14.3342 43.5011 13 46.002 13C49.8679 13 53.002 16.134 53.002 20C53.002 23.866 49.8679 27 46.002 27Z" fill="white"/>
<path d="M69.0127 27C66.5118 27 64.2009 25.6658 62.9505 23.5C61.7001 21.3342 61.7001 18.6658 62.9505 16.5C64.2009 14.3342 66.5118 13 69.0127 13C72.8787 13 76.0127 16.134 76.0127 20C76.0127 23.866 72.8787 27 69.0127 27Z" fill="white"/>
</svg>
